<svg version="1" xmlns="http://www.w3.org/2000/svg" width="568" height="568" viewBox="0 0 426.000000 426.000000"><path d="M194 31.6c-27.8 10.2-29.3 10.7-54.5 19.8-13.2 4.8-24.9 9.1-26 9.6-1.1.5-6 2.3-11 4-4.9 1.8-13.1 4.7-18 6.5-5 1.9-14.9 5.5-22 8-17.1 6.2-40.8 14.8-52.2 19.1l-9.1 3.5v211.4l8.7 3.4c4.7 1.9 10.4 4.2 12.6 5.1 2.2 1 23.1 9.7 46.5 19.4s44.5 18.5 47 19.6c2.5 1.1 9 3.8 14.5 6 5.5 2.3 11.4 4.7 13 5.5 1.7.7 7.1 3 12 5 5 2 16 6.6 24.5 10.2 8.5 3.6 19.8 8.3 25.1 10.5l9.6 4 18.4-7.7c20.4-8.5 47.8-20 52.4-22 1.7-.7 7.5-3.2 13-5.5s11.4-4.7 13-5.5c1.7-.7 14-5.9 27.5-11.6 13.5-5.6 29-12.1 34.5-14.4 5.5-2.3 19-7.9 30-12.5s20.5-8.7 21-9.1c.7-.5 1-36.6.9-106.1-.1-57.9-.2-105.6-.3-105.9 0-.3-2-1.2-4.3-2-2.4-.7-15.1-5.3-28.3-10.2-13.2-4.8-24.7-9-25.5-9.2-.8-.2-35.5-12.8-77-27.9-41.5-15.2-76.2-27.6-77-27.5-.8 0-9.4 2.9-19 6.5z"/></svg>